Chrysalis

.: INFO :.

Directed by 	Julien Leclercq
Produced by 	Franck Chorot
Written by 	Julien Leclercq
Nicolas Peufaillit
Franck Philippon
Aude Py
Starring 	Albert Dupontel
Music by 	Jean-Jacques Hertz
François Roy
Cinematography 	Thomas Hardmeier
Editing by 	Thierry Hoss
Distributed by 	Gaumont
Release date(s) 	31 October 2007 (France)
Running time 	91 minutes
Country 	France
Language 	French

.: CAST :.

    Albert Dupontel as David Hoffman, a police lieutenant
    Estelle Lefébure
    Marie Guillard
    Marthe Keller as Professor Brügen, who runs a state-of-the-art plastic surgery clinic
    Mélanie Thierry as Manon, a captive patient at the clinic
    Alain Figlarz as Dimitri Nicolov, a smuggler


.: STORYLINE :.

In 2025 in Paris, police lieutenant David Hoffman investigates the circumstances behind the body of a young girl named Manon, who was resurrected after a car crash and now has scars around her eyes. Hoffman finds a link between the murderer and smuggler Dimitri Nicolov, who is blamed by the lieutenant for the death of Hoffman's wife. Hoffman's investigation leads him to a state-of-the-art plastic surgery clinic whose goal is to go beyond skin and flesh to shape memory and identity.

.: SPECIFICS :.

General

Unique ID : 175769653555366752048777496002816439530 (0x843C010039A1BA89A5D102B284E8F4EA)
Complete name : C:\Users\Sol\Desktop\FILM Sottotitolati\Chrysalis.mkv
Format : Matroska
File size : 1.47 GiB
Duration : 1h 33mn
Overall bit rate : 2 232 Kbps
Movie name : Chrysalis (2007)
Encoded date : UTC 2011-05-30 17:18:14
Writing application : mkvmerge v4.6.0 ('Still Crazy After All These Years') built on Mar 10 2011 02:50:32
Writing library : libebml v1.2.0 + libmatroska v1.1.0
Cover : Yes / Yes / Yes / Yes / Yes / Yes / Yes

Video

ID : 1
Format : AVC
Format/Info : Advanced Video Codec
Format profile : High@L3.1
Format settings, CABAC : Yes
Format settings, ReFrames : 1 frame
Format settings, GOP : M=1, N=15
Muxing mode : Header stripping
Codec ID : V_MPEG4/ISO/AVC
Duration : 1h 33mn
Bit rate : 1 868 Kbps
Width : 1 280 pixels
Height : 544 pixels
Display aspect ratio : 2.35:1
Frame rate : 23.976 fps
Color space : YUV
Chroma subsampling : 4:2:0
Bit depth : 8 bits
Scan type : Progressive
Bits/(Pixel*Frame) : 0.112
Stream size : 1.23 GiB (84%)

Audio

ID : 2
Format : AC-3
Format/Info : Audio Coding 3
Mode extension : CM (complete main)
Muxing mode : Header stripping
Codec ID : A_AC3
Duration : 1h 33mn
Bit rate mode : Constant
Bit rate : 320 Kbps
Channel(s) : 2 channels
Channel positions : Front: L R
Sampling rate : 48.0 KHz
Bit depth : 16 bits
Compression mode : Lossy
Stream size : 215 MiB (14%)
Language : French

Text #1

ID : 3
Format : ASS
Codec ID : S_TEXT/ASS
Codec ID/Info : Advanced Sub Station Alpha
Compression mode : Lossless
Language : English

Text #2

ID : 4
Format : UTF-8
Codec ID : S_TEXT/UTF8
Codec ID/Info : UTF-8 Plain Text
Language : Italian

Text #3

ID : 5
Format : UTF-8
Codec ID : S_TEXT/UTF8
Codec ID/Info : UTF-8 Plain Text
Language : Portuguese

Text #4

ID : 6
Format : UTF-8
Codec ID : S_TEXT/UTF8
Codec ID/Info : UTF-8 Plain Text
Language : Spanish